<?xml version="1.0" encoding="UTF-8" standalone="no"?>
<!-- Created with Inkscape (http://www.inkscape.org/) -->

<svg
   xmlns:dc="http://purl.org/dc/elements/1.1/"
   xmlns:cc="http://creativecommons.org/ns#"
   xmlns:rdf="http://www.w3.org/1999/02/22-rdf-syntax-ns#"
   xmlns:svg="http://www.w3.org/2000/svg"
   xmlns="http://www.w3.org/2000/svg"
   xmlns:sodipodi="http://sodipodi.sourceforge.net/DTD/sodipodi-0.dtd"
   xmlns:inkscape="http://www.inkscape.org/namespaces/inkscape"
   version="1.1"
   id="svg3699"
   xml:space="preserve"
   width="85.989822"
   height="39.256432"
   viewBox="0 0 85.989823 39.256431"
   sodipodi:docname="logo.svg"
   inkscape:version="0.92.2 (5c3e80d, 2017-08-06)"><metadata
     id="metadata3705"><rdf:RDF><cc:Work
         rdf:about=""><dc:format>image/svg+xml</dc:format><dc:type
           rdf:resource="http://purl.org/dc/dcmitype/StillImage" /><dc:title></dc:title></cc:Work></rdf:RDF></metadata><defs
     id="defs3703"><clipPath
       clipPathUnits="userSpaceOnUse"
       id="clipPath3715"><path
         d="M 0,54.66 H 65.063 V 0 H 0 Z"
         id="path3713"
         inkscape:connector-curvature="0" /></clipPath></defs><sodipodi:namedview
     pagecolor="#ffffff"
     bordercolor="#666666"
     borderopacity="1"
     objecttolerance="10"
     gridtolerance="10"
     guidetolerance="10"
     inkscape:pageopacity="0"
     inkscape:pageshadow="2"
     inkscape:window-width="1366"
     inkscape:window-height="705"
     id="namedview3701"
     showgrid="false"
     inkscape:zoom="7.381971"
     inkscape:cx="27.611863"
     inkscape:cy="3.3864932"
     inkscape:window-x="-8"
     inkscape:window-y="-8"
     inkscape:window-maximized="1"
     inkscape:current-layer="g3707" /><g
     id="g3707"
     inkscape:groupmode="layer"
     inkscape:label="Vektor-Smart-Objekt"
     transform="matrix(1.3333333,0,0,-1.3333333,-0.59136895,72.310075)"
     style="display:inline"><g
       id="g3709"
       transform="matrix(1.163071,0,0,1.2949195,-4.2081615,24.263847)"><g
         id="g3711"
         clip-path="url(#clipPath3715)"><g
           id="g3717"
           transform="translate(17.9253,20.2769)"><path
             d="M 0,0 C -0.063,0 -0.137,-0.034 -0.218,-0.1 -0.3,-0.167 -0.385,-0.257 -0.473,-0.368 -0.56,-0.479 -0.651,-0.605 -0.744,-0.744 -0.838,-0.885 -0.928,-1.028 -1.017,-1.173 -1.22,-1.519 -1.431,-1.906 -1.647,-2.34 c 0.012,0.058 0.04,0.147 0.088,0.263 0.041,0.1 0.099,0.234 0.175,0.403 0.076,0.17 0.181,0.392 0.315,0.667 0.093,0.18 0.194,0.361 0.298,0.539 0.106,0.177 0.224,0.336 0.356,0.477 0.131,0.14 0.277,0.254 0.438,0.342 0.16,0.088 0.34,0.131 0.539,0.131 0.268,0 0.462,-0.086 0.583,-0.257 0.119,-0.174 0.174,-0.39 0.166,-0.65 C 1.302,-0.684 1.235,-0.964 1.11,-1.266 0.984,-1.567 0.812,-1.847 0.592,-2.108 0.373,-2.368 0.114,-2.583 -0.183,-2.755 c -0.299,-0.173 -0.623,-0.259 -0.973,-0.259 -0.269,0 -0.484,0.037 -0.644,0.114 -0.161,0.075 -0.285,0.162 -0.373,0.263 -0.105,0.105 -0.175,0.23 -0.21,0.377 l 0.14,0.061 c 0.041,-0.105 0.094,-0.199 0.158,-0.281 0.053,-0.07 0.122,-0.133 0.21,-0.189 0.088,-0.054 0.19,-0.082 0.307,-0.082 0.146,0 0.301,0.068 0.465,0.206 0.163,0.137 0.32,0.306 0.468,0.507 0.149,0.201 0.285,0.423 0.408,0.662 0.123,0.24 0.218,0.46 0.284,0.662 0.068,0.202 0.1,0.37 0.097,0.509 C 0.151,-0.068 0.1,0 0,0 m -4.267,-5.074 2.62,5.363 1.385,0.193 -2.62,-5.363 z"
             style="fill:#1a171b;fill-opacity:1;fill-rule:nonzero;stroke:none"
             id="path3719"
             inkscape:connector-curvature="0" /></g><g
           id="g3721"
           transform="translate(20.6514,19.0767)"><path
             d="M 0,0 C -0.059,-0.012 -0.126,-0.06 -0.202,-0.146 -0.277,-0.23 -0.351,-0.334 -0.421,-0.456 -0.491,-0.578 -0.554,-0.71 -0.609,-0.85 -0.665,-0.991 -0.704,-1.121 -0.727,-1.241 -0.751,-1.36 -0.753,-1.46 -0.731,-1.539 c 0.02,-0.079 0.071,-0.118 0.153,-0.118 0.052,0 0.121,0.018 0.205,0.053 0.085,0.034 0.168,0.095 0.25,0.18 0.083,0.085 0.155,0.203 0.22,0.356 0.064,0.15 0.099,0.342 0.105,0.573 0.005,0.231 -0.024,0.51 -0.088,0.837 -0.064,0.326 -0.184,0.71 -0.36,1.147 L 0.938,1.683 C 1.201,1.122 1.339,0.623 1.355,0.189 1.369,-0.247 1.292,-0.613 1.122,-0.912 0.952,-1.21 0.71,-1.436 0.394,-1.59 0.08,-1.747 -0.274,-1.823 -0.666,-1.823 c -0.263,0 -0.465,0.059 -0.609,0.175 -0.143,0.117 -0.235,0.26 -0.277,0.43 -0.04,0.169 -0.033,0.346 0.023,0.53 0.055,0.184 0.151,0.344 0.289,0.477 0.137,0.135 0.311,0.228 0.521,0.281 C -0.508,0.122 -0.269,0.099 0,0"
             style="fill:#1a171b;fill-opacity:1;fill-rule:nonzero;stroke:none"
             id="path3723"
             inkscape:connector-curvature="0" /></g><g
           id="g3725"
           transform="translate(22.6846,19.3042)"><path
             d="M 0,0 C 0.093,0.187 0.18,0.359 0.258,0.517 0.338,0.675 0.406,0.81 0.464,0.921 0.529,1.049 0.59,1.163 0.648,1.262 L 2.024,1.455 C 1.977,1.362 1.919,1.245 1.849,1.105 1.785,0.988 1.708,0.836 1.617,0.648 1.526,0.461 1.414,0.236 1.28,-0.026 1.145,-0.289 1.037,-0.503 0.956,-0.671 0.874,-0.836 0.816,-0.967 0.784,-1.065 0.752,-1.162 0.742,-1.229 0.754,-1.266 0.765,-1.305 0.797,-1.323 0.85,-1.323 c 0.082,0 0.19,0.07 0.325,0.21 0.134,0.14 0.278,0.321 0.433,0.544 0.155,0.221 0.307,0.467 0.456,0.736 0.149,0.269 0.279,0.534 0.39,0.798 C 2.255,0.491 2.075,0.083 1.915,-0.258 1.754,-0.601 1.594,-0.881 1.433,-1.099 1.272,-1.319 1.103,-1.48 0.925,-1.586 0.746,-1.691 0.54,-1.744 0.307,-1.744 c -0.275,0 -0.469,0.04 -0.583,0.124 -0.114,0.081 -0.172,0.198 -0.176,0.35 -0.002,0.151 0.04,0.334 0.128,0.547 C -0.236,-0.51 -0.129,-0.269 0,0 m 1.245,-1.542 c 0.187,0.397 0.364,0.765 0.534,1.104 0.169,0.339 0.316,0.638 0.438,0.894 0.146,0.298 0.278,0.572 0.394,0.823 L 3.988,1.473 C 3.888,1.262 3.768,1.014 3.628,0.727 3.505,0.482 3.355,0.177 3.177,-0.188 2.999,-0.554 2.787,-0.981 2.542,-1.472 2.296,-1.957 2.067,-2.352 1.853,-2.655 1.64,-2.96 1.421,-3.196 1.197,-3.364 0.972,-3.535 0.733,-3.651 0.482,-3.711 0.23,-3.773 -0.053,-3.804 -0.368,-3.804 c -0.286,0 -0.514,0.064 -0.683,0.189 -0.17,0.125 -0.282,0.277 -0.338,0.45 -0.055,0.177 -0.055,0.361 0,0.554 0.056,0.192 0.161,0.354 0.315,0.487 0.155,0.13 0.362,0.215 0.618,0.253 0.258,0.038 0.558,-0.006 0.903,-0.136 -0.105,-0.046 -0.205,-0.12 -0.298,-0.223 -0.094,-0.102 -0.178,-0.215 -0.254,-0.337 -0.076,-0.123 -0.14,-0.248 -0.193,-0.377 -0.053,-0.129 -0.091,-0.247 -0.114,-0.355 -0.023,-0.109 -0.029,-0.196 -0.017,-0.264 0.012,-0.067 0.044,-0.101 0.096,-0.101 0.059,0 0.139,0.037 0.241,0.111 0.102,0.073 0.219,0.192 0.35,0.358 0.133,0.167 0.281,0.385 0.448,0.654 0.166,0.269 0.346,0.601 0.539,0.999"
             style="fill:#1a171b;fill-opacity:1;fill-rule:nonzero;stroke:none"
             id="path3727"
             inkscape:connector-curvature="0" /></g><g
           id="g3729"
           transform="translate(27.4522,17.4116)"><path
             d="M 0,0 C 0.391,0 0.754,0.111 1.092,0.333 1.427,0.555 1.753,0.85 2.068,1.217 1.952,1.037 1.81,0.864 1.644,0.696 1.476,0.531 1.292,0.382 1.092,0.255 0.889,0.125 0.673,0.023 0.442,-0.053 c -0.23,-0.076 -0.468,-0.113 -0.714,-0.113 -0.38,0 -0.666,0.084 -0.859,0.257 -0.192,0.173 -0.302,0.391 -0.328,0.654 -0.026,0.262 0.022,0.544 0.145,0.845 0.122,0.301 0.306,0.583 0.552,0.846 0.245,0.263 0.543,0.48 0.893,0.654 0.352,0.171 0.743,0.258 1.175,0.258 0.293,0 0.513,-0.057 0.661,-0.171 C 2.117,3.063 2.205,2.926 2.234,2.766 2.264,2.604 2.24,2.431 2.165,2.247 2.089,2.064 1.972,1.903 1.814,1.766 1.657,1.629 1.462,1.528 1.231,1.464 1.001,1.399 0.745,1.405 0.465,1.48 0.611,1.621 0.747,1.789 0.872,1.984 0.998,2.181 1.1,2.369 1.179,2.549 1.257,2.731 1.308,2.887 1.327,3.014 1.349,3.143 1.329,3.208 1.271,3.208 1.188,3.208 1.072,3.128 0.92,2.97 0.768,2.813 0.611,2.614 0.448,2.374 0.283,2.136 0.13,1.878 -0.014,1.604 -0.156,1.329 -0.262,1.072 -0.329,0.833 -0.397,0.593 -0.411,0.394 -0.373,0.236 -0.334,0.079 -0.21,0 0,0"
             style="fill:#1a171b;fill-opacity:1;fill-rule:nonzero;stroke:none"
             id="path3731"
             inkscape:connector-curvature="0" /></g><g
           id="g3733"
           transform="translate(32.5264,20.7593)"><path
             d="M 0,0 C 0.404,0 0.642,-0.145 0.719,-0.434 0.794,-0.723 0.663,-1.171 0.325,-1.779 0.056,-2.27 -0.124,-2.617 -0.215,-2.817 c -0.09,-0.202 -0.082,-0.303 0.022,-0.303 0.099,0 0.216,0.067 0.352,0.201 0.134,0.135 0.261,0.284 0.384,0.448 0.146,0.192 0.292,0.407 0.438,0.647 C 0.852,-2.138 0.701,-2.419 0.526,-2.664 0.45,-2.77 0.365,-2.872 0.272,-2.97 0.178,-3.07 0.075,-3.16 -0.039,-3.238 -0.153,-3.317 -0.275,-3.379 -0.406,-3.425 -0.54,-3.473 -0.678,-3.496 -0.824,-3.496 c -0.18,0 -0.319,0.026 -0.411,0.078 -0.094,0.053 -0.156,0.123 -0.185,0.21 -0.028,0.088 -0.034,0.191 -0.013,0.307 0.021,0.117 0.057,0.24 0.11,0.368 0.053,0.128 0.112,0.259 0.179,0.395 0.067,0.134 0.134,0.263 0.197,0.385 0.094,0.18 0.179,0.35 0.259,0.508 0.078,0.158 0.139,0.293 0.18,0.404 0.041,0.11 0.06,0.199 0.057,0.262 -0.003,0.065 -0.039,0.097 -0.11,0.097 -0.065,0 -0.137,-0.035 -0.22,-0.1 -0.081,-0.067 -0.166,-0.158 -0.253,-0.268 -0.088,-0.111 -0.179,-0.237 -0.272,-0.376 -0.093,-0.142 -0.183,-0.285 -0.271,-0.43 -0.206,-0.346 -0.416,-0.733 -0.631,-1.167 0.011,0.059 0.041,0.147 0.087,0.264 0.041,0.099 0.1,0.234 0.176,0.403 0.075,0.169 0.18,0.391 0.315,0.667 0.094,0.18 0.193,0.36 0.299,0.538 0.103,0.178 0.223,0.337 0.354,0.478 0.131,0.139 0.277,0.254 0.437,0.342 C -0.378,-0.044 -0.198,0 0,0 m -3.804,-3.505 2.788,5.696 1.376,0.193 -2.779,-5.698 z"
             style="fill:#1a171b;fill-opacity:1;fill-rule:nonzero;stroke:none"
             id="path3735"
             inkscape:connector-curvature="0" /></g><g
           id="g3737"
           transform="translate(34.2964,17.4116)"><path
             d="M 0,0 C 0.101,0 0.22,0.079 0.359,0.236 0.5,0.394 0.643,0.592 0.785,0.828 0.928,1.065 1.065,1.321 1.196,1.595 1.328,1.869 1.434,2.125 1.512,2.361 1.592,2.599 1.637,2.796 1.648,2.954 1.66,3.11 1.621,3.19 1.533,3.19 1.395,3.19 1.248,3.11 1.096,2.954 0.944,2.796 0.797,2.599 0.654,2.361 0.511,2.125 0.378,1.869 0.259,1.595 0.14,1.321 0.045,1.065 -0.021,0.828 -0.089,0.592 -0.124,0.394 -0.127,0.236 -0.13,0.079 -0.087,0 0,0 m 1.586,3.348 c 0.35,0 0.61,-0.087 0.776,-0.258 C 2.528,2.916 2.615,2.701 2.621,2.44 2.627,2.181 2.563,1.897 2.433,1.595 2.302,1.291 2.115,1.009 1.876,0.749 1.637,0.489 1.351,0.273 1.021,0.1 0.691,-0.071 0.333,-0.158 -0.052,-0.158 c -0.35,0 -0.617,0.087 -0.799,0.258 -0.18,0.173 -0.286,0.389 -0.314,0.649 -0.028,0.26 0.015,0.542 0.13,0.846 0.117,0.302 0.297,0.586 0.536,0.845 0.24,0.261 0.534,0.476 0.885,0.65 0.35,0.171 0.752,0.258 1.2,0.258"
             style="fill:#1a171b;fill-opacity:1;fill-rule:nonzero;stroke:none"
             id="path3739"
             inkscape:connector-curvature="0" /></g><g
           id="g3741"
           transform="translate(37.1812,19.0063)"><path
             d="M 0,0 C 0.04,0.094 0.102,0.222 0.184,0.385 0.266,0.55 0.355,0.732 0.455,0.933 0.554,1.135 0.658,1.35 0.77,1.577 0.881,1.806 0.992,2.031 1.104,2.253 1.361,2.778 1.641,3.341 1.944,3.944 L 3.329,4.137 C 3.038,3.547 2.76,2.983 2.497,2.445 2.387,2.217 2.271,1.986 2.154,1.748 2.038,1.512 1.924,1.285 1.812,1.066 1.702,0.846 1.6,0.642 1.507,0.452 1.414,0.262 1.335,0.102 1.271,-0.026 1.135,-0.29 1.027,-0.506 0.949,-0.68 0.871,-0.852 0.813,-0.989 0.779,-1.09 0.744,-1.194 0.732,-1.264 0.744,-1.306 0.756,-1.347 0.787,-1.367 0.84,-1.367 c 0.098,0 0.216,0.067 0.351,0.201 0.135,0.135 0.259,0.284 0.376,0.448 0.14,0.192 0.285,0.407 0.429,0.647 C 1.868,-0.385 1.714,-0.665 1.532,-0.911 1.457,-1.017 1.373,-1.119 1.279,-1.217 1.185,-1.317 1.082,-1.407 0.968,-1.485 0.853,-1.564 0.73,-1.626 0.6,-1.672 0.467,-1.72 0.33,-1.743 0.184,-1.743 c -0.277,0 -0.457,0.054 -0.544,0.166 -0.088,0.11 -0.12,0.25 -0.097,0.421 0.023,0.169 0.082,0.357 0.176,0.565 C -0.188,-0.384 -0.095,-0.187 0,0"
             style="fill:#1a171b;fill-opacity:1;fill-rule:nonzero;stroke:none"
             id="path3743"
             inkscape:connector-curvature="0" /></g><g
           id="g3745"
           transform="translate(39.9839,17.4116)"><path
             d="M 0,0 C 0.1,0 0.22,0.079 0.359,0.236 0.5,0.394 0.641,0.592 0.785,0.828 0.928,1.065 1.065,1.321 1.196,1.595 1.329,1.869 1.433,2.125 1.512,2.361 1.591,2.599 1.636,2.796 1.648,2.954 1.66,3.11 1.621,3.19 1.533,3.19 1.395,3.19 1.248,3.11 1.095,2.954 0.944,2.796 0.797,2.599 0.652,2.361 0.51,2.125 0.378,1.869 0.259,1.595 0.14,1.321 0.046,1.065 -0.021,0.828 -0.089,0.592 -0.123,0.394 -0.126,0.236 -0.129,0.079 -0.088,0 0,0 M 1.587,3.348 C 1.936,3.348 2.196,3.261 2.361,3.09 2.528,2.916 2.614,2.701 2.62,2.44 2.626,2.181 2.563,1.897 2.433,1.595 2.301,1.291 2.115,1.009 1.876,0.749 1.636,0.489 1.352,0.273 1.021,0.1 0.69,-0.071 0.333,-0.158 -0.052,-0.158 c -0.35,0 -0.617,0.087 -0.799,0.258 -0.179,0.173 -0.285,0.389 -0.314,0.649 -0.029,0.26 0.014,0.542 0.132,0.846 0.116,0.302 0.294,0.586 0.534,0.845 0.239,0.261 0.534,0.476 0.885,0.65 0.35,0.171 0.752,0.258 1.201,0.258"
             style="fill:#1a171b;fill-opacity:1;fill-rule:nonzero;stroke:none"
             id="path3747"
             inkscape:connector-curvature="0" /></g><g
           id="g3749"
           transform="translate(43.9019,18.0249)"><path
             d="M 0,0 C 0.047,0 0.101,0.024 0.162,0.074 0.223,0.124 0.287,0.189 0.354,0.271 0.422,0.353 0.489,0.445 0.557,0.547 0.624,0.65 0.689,0.757 0.754,0.867 0.905,1.119 1.058,1.408 1.209,1.736 1.174,1.596 1.118,1.407 1.042,1.169 0.967,0.934 0.863,0.698 0.732,0.464 0.601,0.231 0.436,0.029 0.24,-0.14 0.045,-0.31 -0.193,-0.395 -0.474,-0.395 c -0.287,0 -0.499,0.079 -0.634,0.233 -0.138,0.154 -0.211,0.347 -0.219,0.577 -0.01,0.232 0.042,0.484 0.152,0.754 0.111,0.273 0.271,0.524 0.478,0.754 0.208,0.232 0.46,0.424 0.758,0.579 0.298,0.155 0.631,0.232 1,0.232 0.204,0 0.375,-0.039 0.516,-0.118 C 1.718,2.537 1.828,2.448 1.91,2.349 2.009,2.238 2.083,2.109 2.131,1.963 L 1.989,1.91 C 1.948,2.016 1.896,2.109 1.831,2.191 1.78,2.261 1.716,2.325 1.643,2.384 1.569,2.442 1.492,2.471 1.411,2.471 1.258,2.471 1.102,2.411 0.942,2.288 0.781,2.164 0.631,2.013 0.487,1.832 0.343,1.651 0.215,1.453 0.104,1.236 -0.007,1.02 -0.089,0.82 -0.145,0.64 -0.2,0.458 -0.22,0.306 -0.201,0.184 -0.185,0.061 -0.116,0 0,0 M 0.245,-0.263 C 0.432,0.134 0.61,0.502 0.78,0.841 0.949,1.18 1.096,1.479 1.218,1.736 1.364,2.034 1.494,2.308 1.612,2.559 L 2.989,2.752 C 2.889,2.541 2.77,2.294 2.629,2.006 2.507,1.761 2.355,1.456 2.178,1.091 1.999,0.726 1.788,0.298 1.542,-0.192 1.297,-0.678 1.068,-1.073 0.854,-1.376 0.642,-1.681 0.423,-1.917 0.201,-2.085 c -0.222,-0.171 -0.458,-0.287 -0.71,-0.347 -0.252,-0.062 -0.535,-0.092 -0.85,-0.092 -0.292,0 -0.522,0.064 -0.692,0.189 -0.17,0.125 -0.28,0.276 -0.334,0.45 -0.051,0.176 -0.051,0.361 0,0.554 0.054,0.192 0.158,0.353 0.317,0.486 0.159,0.131 0.365,0.216 0.618,0.254 0.254,0.037 0.552,-0.007 0.897,-0.137 -0.157,-0.069 -0.302,-0.196 -0.429,-0.38 -0.129,-0.184 -0.232,-0.37 -0.311,-0.557 -0.078,-0.187 -0.123,-0.353 -0.135,-0.5 -0.011,-0.146 0.023,-0.219 0.104,-0.219 0.058,0 0.139,0.036 0.242,0.111 0.102,0.072 0.218,0.192 0.35,0.358 0.131,0.166 0.28,0.385 0.443,0.653 0.162,0.269 0.341,0.601 0.534,0.999"
             style="fill:#1a171b;fill-opacity:1;fill-rule:nonzero;stroke:none"
             id="path3751"
             inkscape:connector-curvature="0" /></g><g
           id="g3753"
           transform="translate(47.6968,21.4258)"><path
             d="M 0,0 C 0.115,0.227 0.215,0.419 0.297,0.573 0.38,0.729 0.459,0.853 0.538,0.946 0.619,1.04 0.701,1.113 0.788,1.165 0.876,1.218 0.981,1.258 1.104,1.288 1.227,1.317 1.374,1.339 1.546,1.354 1.719,1.368 1.928,1.39 2.172,1.419 2.068,1.21 1.979,1.035 1.905,0.898 1.834,0.761 1.762,0.646 1.69,0.556 1.622,0.465 1.545,0.396 1.458,0.345 1.374,0.296 1.269,0.253 1.143,0.219 1.018,0.184 0.864,0.15 0.68,0.117 0.495,0.086 0.269,0.047 0,0 m -1.192,-2.419 c 0.093,0.187 0.184,0.372 0.272,0.556 0.088,0.184 0.17,0.351 0.245,0.505 0.083,0.174 0.162,0.341 0.245,0.498 l 1.385,0.194 C 0.886,-0.813 0.807,-0.979 0.718,-1.166 0.642,-1.324 0.55,-1.512 0.442,-1.728 0.335,-1.943 0.213,-2.183 0.079,-2.446 -0.055,-2.709 -0.163,-2.925 -0.242,-3.099 -0.32,-3.271 -0.378,-3.409 -0.411,-3.51 c -0.035,-0.103 -0.047,-0.174 -0.035,-0.215 0.011,-0.041 0.044,-0.061 0.095,-0.061 0.099,0 0.217,0.067 0.351,0.201 0.135,0.134 0.259,0.284 0.377,0.447 0.14,0.193 0.283,0.408 0.43,0.648 C 0.678,-2.805 0.526,-3.085 0.351,-3.33 0.273,-3.436 0.189,-3.539 0.096,-3.637 0.002,-3.737 -0.101,-3.826 -0.215,-3.904 -0.329,-3.984 -0.451,-4.046 -0.582,-4.092 -0.714,-4.139 -0.853,-4.163 -1,-4.163 c -0.273,0 -0.455,0.055 -0.542,0.166 -0.087,0.11 -0.12,0.251 -0.101,0.421 0.02,0.169 0.078,0.357 0.17,0.565 0.094,0.207 0.186,0.405 0.281,0.592"
             style="fill:#1a171b;fill-opacity:1;fill-rule:nonzero;stroke:none"
             id="path3755"
             inkscape:connector-curvature="0" /></g><g
           id="g3757"
           transform="translate(49.5972,17.4116)"><path
             d="M 0,0 C 0.392,0 0.756,0.111 1.092,0.333 1.428,0.555 1.754,0.85 2.068,1.217 1.952,1.037 1.811,0.864 1.646,0.696 1.478,0.531 1.294,0.382 1.092,0.255 0.891,0.125 0.674,0.023 0.443,-0.053 0.212,-0.129 -0.025,-0.166 -0.27,-0.166 c -0.38,0 -0.667,0.084 -0.859,0.257 -0.192,0.173 -0.303,0.391 -0.329,0.654 -0.026,0.262 0.022,0.544 0.145,0.845 0.122,0.301 0.306,0.583 0.552,0.846 0.245,0.263 0.543,0.48 0.894,0.654 C 0.482,3.261 0.874,3.348 1.308,3.348 1.6,3.348 1.819,3.291 1.969,3.177 2.117,3.063 2.207,2.926 2.236,2.766 2.265,2.604 2.241,2.431 2.166,2.247 2.091,2.064 1.972,1.903 1.814,1.766 1.656,1.629 1.464,1.528 1.231,1.464 1.001,1.399 0.746,1.405 0.465,1.48 0.611,1.621 0.748,1.789 0.874,1.984 0.998,2.181 1.102,2.369 1.18,2.549 1.259,2.731 1.31,2.887 1.329,3.014 1.349,3.143 1.329,3.208 1.271,3.208 1.19,3.208 1.074,3.128 0.922,2.97 0.77,2.813 0.611,2.614 0.448,2.374 0.283,2.136 0.132,1.878 -0.012,1.604 -0.155,1.329 -0.26,1.072 -0.327,0.833 -0.395,0.593 -0.41,0.394 -0.371,0.236 -0.333,0.079 -0.21,0 0,0"
             style="fill:#1a171b;fill-opacity:1;fill-rule:nonzero;stroke:none"
             id="path3759"
             inkscape:connector-curvature="0" /></g><g
           id="g3761"
           transform="translate(52.5943,17.4116)"><path
             d="M 0,0 C 0.1,0 0.22,0.079 0.36,0.236 0.501,0.394 0.643,0.592 0.785,0.828 0.928,1.065 1.065,1.321 1.196,1.595 1.328,1.869 1.434,2.125 1.514,2.361 1.592,2.599 1.637,2.796 1.648,2.954 1.66,3.11 1.622,3.19 1.535,3.19 1.395,3.19 1.249,3.11 1.096,2.954 0.944,2.796 0.797,2.599 0.654,2.361 0.511,2.125 0.381,1.869 0.26,1.595 0.14,1.321 0.045,1.065 -0.022,0.828 -0.089,0.592 -0.123,0.394 -0.126,0.236 -0.13,0.079 -0.087,0 0,0 M 1.587,3.348 C 1.937,3.348 2.196,3.261 2.362,3.09 2.528,2.916 2.616,2.701 2.622,2.44 2.628,2.181 2.563,1.897 2.433,1.595 2.302,1.291 2.115,1.009 1.878,0.749 1.637,0.489 1.353,0.273 1.021,0.1 0.692,-0.071 0.335,-0.158 -0.052,-0.158 c -0.349,0 -0.616,0.087 -0.798,0.258 -0.18,0.173 -0.286,0.389 -0.314,0.649 -0.031,0.26 0.014,0.542 0.131,0.846 0.116,0.302 0.294,0.586 0.534,0.845 0.24,0.261 0.534,0.476 0.886,0.65 0.351,0.171 0.751,0.258 1.2,0.258"
             style="fill:#1a171b;fill-opacity:1;fill-rule:nonzero;stroke:none"
             id="path3763"
             inkscape:connector-curvature="0" /></g><g
           id="g3765"
           transform="translate(58.4585,20.7593)"><path
             d="M 0,0 C 0.408,0 0.651,-0.145 0.728,-0.434 0.803,-0.723 0.672,-1.171 0.332,-1.779 0.064,-2.27 -0.114,-2.617 -0.205,-2.817 -0.296,-3.019 -0.289,-3.12 -0.184,-3.12 c 0.099,0 0.215,0.067 0.35,0.201 0.134,0.135 0.265,0.284 0.387,0.448 0.146,0.192 0.292,0.407 0.438,0.647 C 0.862,-2.138 0.711,-2.419 0.534,-2.664 0.459,-2.77 0.375,-2.872 0.28,-2.97 0.186,-3.07 0.084,-3.16 -0.03,-3.238 c -0.115,-0.079 -0.238,-0.141 -0.368,-0.187 -0.131,-0.048 -0.271,-0.071 -0.416,-0.071 -0.183,0 -0.321,0.026 -0.413,0.078 -0.094,0.053 -0.154,0.123 -0.185,0.21 -0.028,0.088 -0.033,0.191 -0.013,0.307 0.022,0.117 0.057,0.24 0.111,0.368 0.052,0.128 0.111,0.259 0.179,0.395 0.068,0.134 0.133,0.263 0.198,0.385 0.093,0.18 0.18,0.35 0.258,0.508 0.079,0.158 0.138,0.293 0.18,0.404 0.04,0.11 0.059,0.199 0.057,0.262 -0.003,0.065 -0.04,0.097 -0.111,0.097 -0.063,0 -0.136,-0.035 -0.218,-0.1 -0.083,-0.067 -0.168,-0.158 -0.26,-0.268 -0.091,-0.111 -0.183,-0.237 -0.276,-0.376 -0.093,-0.142 -0.184,-0.285 -0.271,-0.43 -0.205,-0.346 -0.414,-0.733 -0.631,-1.167 0.013,0.059 0.041,0.147 0.088,0.264 0.04,0.099 0.101,0.234 0.181,0.403 0.079,0.169 0.184,0.391 0.319,0.667 0.094,0.18 0.192,0.36 0.297,0.538 0.105,0.178 0.223,0.337 0.355,0.478 0.133,0.139 0.277,0.254 0.435,0.342 C -0.376,-0.044 -0.198,0 0,0 M -3.821,-3.505 -2.2,-0.193 -0.814,0 -2.532,-3.505 Z"
             style="fill:#1a171b;fill-opacity:1;fill-rule:nonzero;stroke:none"
             id="path3767"
             inkscape:connector-curvature="0" /></g><g
           id="g3769"
           transform="translate(5.2251,9.6826)"><path
             d="m 0,0 c 0.107,0.248 0.271,0.586 0.486,1.019 0.217,0.434 0.457,0.917 0.72,1.448 0.262,0.534 0.54,1.102 0.834,1.704 0.293,0.604 0.588,1.199 0.881,1.787 0.68,1.391 1.422,2.882 2.226,4.475 l 3.663,0.51 C 8.037,9.381 7.303,7.89 6.608,6.468 6.314,5.864 6.013,5.251 5.703,4.624 5.394,3.998 5.093,3.396 4.799,2.817 4.505,2.235 4.235,1.696 3.988,1.192 3.74,0.69 3.531,0.27 3.362,-0.071 3.006,-0.767 2.724,-1.342 2.515,-1.799 2.307,-2.253 2.156,-2.618 2.064,-2.888 1.971,-3.159 1.94,-3.348 1.971,-3.455 c 0.03,-0.11 0.115,-0.163 0.255,-0.163 0.261,0 0.572,0.178 0.927,0.532 0.355,0.358 0.687,0.752 0.997,1.184 0.371,0.509 0.749,1.081 1.136,1.715 C 4.946,-1.021 4.537,-1.763 4.057,-2.412 3.856,-2.691 3.632,-2.961 3.385,-3.223 3.137,-3.487 2.863,-3.724 2.561,-3.931 2.261,-4.141 1.936,-4.306 1.588,-4.429 1.24,-4.553 0.873,-4.616 0.486,-4.616 c -0.727,0 -1.205,0.148 -1.437,0.442 -0.232,0.293 -0.317,0.663 -0.255,1.113 0.062,0.448 0.216,0.945 0.464,1.494 C -0.496,-1.018 -0.248,-0.497 0,0"
             style="fill:#1a171b;fill-opacity:1;fill-rule:nonzero;stroke:none"
             id="path3771"
             inkscape:connector-curvature="0" /></g><g
           id="g3773"
           transform="translate(12.6431,5.4614)"><path
             d="m 0,0 c 0.264,0 0.581,0.209 0.951,0.626 0.371,0.417 0.745,0.94 1.125,1.565 0.378,0.626 0.742,1.302 1.09,2.03 C 3.513,4.948 3.791,5.623 4.001,6.25 4.209,6.876 4.328,7.396 4.359,7.813 4.391,8.23 4.29,8.439 4.058,8.439 3.688,8.439 3.301,8.23 2.898,7.813 2.497,7.396 2.106,6.876 1.728,6.25 1.349,5.623 1.001,4.948 0.685,4.221 0.368,3.493 0.12,2.817 -0.058,2.191 -0.235,1.566 -0.328,1.043 -0.336,0.626 -0.344,0.209 -0.232,0 0,0 M 4.197,8.857 C 5.124,8.857 5.808,8.629 6.249,8.174 6.689,7.718 6.918,7.146 6.933,6.457 6.949,5.77 6.783,5.023 6.434,4.221 6.086,3.418 5.596,2.67 4.962,1.983 4.328,1.295 3.575,0.723 2.701,0.267 1.828,-0.189 0.882,-0.417 -0.139,-0.417 c -0.926,0 -1.63,0.228 -2.11,0.684 -0.479,0.456 -0.758,1.028 -0.834,1.716 -0.078,0.687 0.038,1.435 0.348,2.238 0.308,0.802 0.779,1.549 1.413,2.236 0.635,0.689 1.415,1.261 2.343,1.717 0.928,0.455 1.986,0.683 3.176,0.683"
             style="fill:#1a171b;fill-opacity:1;fill-rule:nonzero;stroke:none"
             id="path3775"
             inkscape:connector-curvature="0" /></g><g
           id="g3777"
           transform="translate(25.4883,9.6826)"><path
             d="m 0,0 c 0.232,0.494 0.468,0.984 0.708,1.472 0.239,0.486 0.459,0.93 0.66,1.331 0.232,0.465 0.448,0.906 0.65,1.323 L 5.68,4.636 C 5.48,4.249 5.263,3.81 5.032,3.315 4.816,2.897 4.571,2.402 4.302,1.83 4.03,1.258 3.717,0.624 3.362,-0.071 3.007,-0.767 2.724,-1.342 2.517,-1.799 2.307,-2.253 2.157,-2.618 2.064,-2.888 1.971,-3.159 1.939,-3.348 1.971,-3.455 c 0.031,-0.11 0.116,-0.163 0.255,-0.163 0.263,0 0.571,0.178 0.928,0.532 0.355,0.358 0.686,0.752 0.996,1.184 0.371,0.509 0.75,1.081 1.137,1.715 C 4.947,-1.021 4.537,-1.763 4.057,-2.412 3.857,-2.691 3.632,-2.961 3.385,-3.223 3.138,-3.487 2.863,-3.724 2.562,-3.931 2.261,-4.141 1.937,-4.306 1.588,-4.429 1.241,-4.553 0.874,-4.616 0.487,-4.616 c -0.727,0 -1.205,0.148 -1.437,0.442 -0.232,0.293 -0.317,0.663 -0.256,1.113 0.062,0.448 0.216,0.945 0.464,1.494 C -0.494,-1.018 -0.247,-0.497 0,0 m -5.24,0 c 0.247,0.494 0.491,0.984 0.73,1.472 0.24,0.486 0.469,0.93 0.684,1.331 0.233,0.465 0.465,0.906 0.696,1.323 l 3.663,0.51 C 0.332,4.249 0.109,3.81 -0.139,3.315 -0.355,2.897 -0.606,2.402 -0.893,1.83 -1.178,1.258 -1.499,0.624 -1.854,-0.071 -2.21,-0.767 -2.496,-1.334 -2.712,-1.774 -2.929,-2.215 -3.08,-2.564 -3.165,-2.817 -3.25,-3.074 -3.277,-3.251 -3.246,-3.352 c 0.031,-0.099 0.116,-0.151 0.255,-0.151 0.216,0 0.526,0.229 0.928,0.686 0.401,0.454 0.83,1.022 1.287,1.704 C -0.321,-0.434 0.127,0.303 0.568,1.1 1.009,1.895 1.376,2.642 1.67,3.337 1.144,2.086 0.646,0.97 0.174,-0.013 c -0.471,-0.982 -0.943,-1.816 -1.415,-2.505 -0.471,-0.686 -0.965,-1.209 -1.483,-1.564 -0.519,-0.357 -1.087,-0.534 -1.705,-0.534 -0.726,0 -1.24,0.11 -1.541,0.325 -0.302,0.216 -0.456,0.527 -0.464,0.929 -0.008,0.401 0.104,0.884 0.337,1.448 0.231,0.564 0.516,1.202 0.857,1.914"
             style="fill:#1a171b;fill-opacity:1;fill-rule:nonzero;stroke:none"
             id="path3779"
             inkscape:connector-curvature="0" /></g><g
           id="g3781"
           transform="translate(38.4263,14.3184)"><path
             d="m 0,0 c 1.082,0 1.723,-0.383 1.924,-1.148 0.2,-0.765 -0.147,-1.951 -1.044,-3.559 -0.71,-1.298 -1.186,-2.214 -1.424,-2.746 -0.24,-0.534 -0.222,-0.801 0.057,-0.801 0.262,0 0.572,0.178 0.926,0.532 0.357,0.358 0.697,0.752 1.023,1.184 0.385,0.509 0.771,1.081 1.158,1.715 C 2.279,-5.657 1.878,-6.398 1.415,-7.048 1.213,-7.327 0.988,-7.597 0.742,-7.859 0.494,-8.123 0.22,-8.359 -0.081,-8.566 c -0.302,-0.21 -0.626,-0.376 -0.974,-0.499 -0.347,-0.124 -0.716,-0.187 -1.101,-0.187 -0.48,0 -0.843,0.07 -1.089,0.209 -0.248,0.141 -0.41,0.325 -0.487,0.558 -0.079,0.231 -0.09,0.501 -0.036,0.811 0.054,0.31 0.152,0.633 0.29,0.973 0.139,0.34 0.297,0.687 0.475,1.044 0.178,0.354 0.352,0.696 0.524,1.021 0.246,0.477 0.473,0.926 0.682,1.344 0.209,0.416 0.367,0.773 0.475,1.067 0.109,0.293 0.159,0.525 0.151,0.695 -0.007,0.17 -0.103,0.254 -0.291,0.254 -0.17,0 -0.362,-0.089 -0.579,-0.266 -0.216,-0.178 -0.444,-0.413 -0.685,-0.708 -0.238,-0.292 -0.482,-0.626 -0.728,-0.995 -0.248,-0.372 -0.487,-0.752 -0.719,-1.137 -0.542,-0.912 -1.098,-1.939 -1.67,-3.084 0.032,0.154 0.108,0.386 0.233,0.696 0.106,0.262 0.265,0.619 0.474,1.066 0.209,0.448 0.491,1.035 0.847,1.763 0.246,0.479 0.51,0.954 0.787,1.426 0.278,0.471 0.593,0.893 0.941,1.263 0.346,0.371 0.729,0.673 1.146,0.905 C -0.997,-0.116 -0.526,0 0,0 M -10.11,-9.274 -5.819,-0.509 -2.156,0 -6.701,-9.274 Z"
             style="fill:#1a171b;fill-opacity:1;fill-rule:nonzero;stroke:none"
             id="path3783"
             inkscape:connector-curvature="0" /></g><g
           id="g3785"
           transform="translate(43.5513,7.0845)"><path
             d="m 0,0 c 0.122,0 0.265,0.065 0.428,0.198 0.162,0.13 0.331,0.303 0.509,0.52 0.178,0.217 0.357,0.46 0.535,0.73 0.175,0.273 0.35,0.554 0.52,0.848 C 2.396,2.96 2.797,3.724 3.199,4.59 3.105,4.22 2.959,3.723 2.758,3.096 2.557,2.47 2.282,1.847 1.935,1.229 1.586,0.611 1.154,0.076 0.636,-0.37 0.118,-0.82 -0.511,-1.044 -1.253,-1.044 c -0.758,0 -1.318,0.205 -1.682,0.615 -0.363,0.409 -0.555,0.919 -0.579,1.531 -0.023,0.611 0.112,1.276 0.405,1.994 0.294,0.719 0.715,1.383 1.264,1.994 0.549,0.61 1.217,1.119 2.007,1.531 C 0.949,7.03 1.83,7.234 2.805,7.234 3.347,7.234 3.802,7.131 4.171,6.92 4.543,6.714 4.838,6.477 5.054,6.215 5.316,5.921 5.51,5.581 5.634,5.194 L 5.262,5.054 C 5.153,5.334 5.016,5.581 4.846,5.796 4.706,5.982 4.54,6.153 4.346,6.307 4.153,6.46 3.948,6.54 3.732,6.54 3.33,6.54 2.916,6.377 2.49,6.053 2.066,5.727 1.664,5.325 1.286,4.847 0.907,4.368 0.571,3.841 0.276,3.269 -0.017,2.698 -0.235,2.171 -0.384,1.692 -0.531,1.213 -0.581,0.81 -0.535,0.487 -0.489,0.162 -0.31,0 0,0 M 0.648,-0.695 C 1.143,0.356 1.613,1.33 2.063,2.226 2.511,3.122 2.897,3.911 3.224,4.59 3.609,5.379 3.957,6.105 4.266,6.769 L 7.904,7.28 C 7.642,6.725 7.326,6.067 6.955,5.31 6.63,4.66 6.232,3.853 5.762,2.887 5.29,1.92 4.73,0.788 4.08,-0.51 3.431,-1.793 2.825,-2.837 2.261,-3.641 1.694,-4.443 1.119,-5.07 0.531,-5.517 -0.056,-5.968 -0.683,-6.273 -1.346,-6.436 -2.011,-6.597 -2.76,-6.678 -3.595,-6.678 c -0.773,0 -1.384,0.168 -1.832,0.5 -0.448,0.332 -0.741,0.73 -0.881,1.193 -0.14,0.463 -0.14,0.95 0,1.461 0.14,0.51 0.417,0.939 0.835,1.288 0.417,0.347 0.962,0.571 1.635,0.671 0.672,0.1 1.464,-0.019 2.376,-0.36 -0.417,-0.185 -0.797,-0.521 -1.136,-1.008 -0.34,-0.487 -0.615,-0.978 -0.823,-1.471 -0.209,-0.495 -0.328,-0.936 -0.358,-1.324 -0.032,-0.384 0.061,-0.578 0.277,-0.578 0.154,0 0.367,0.095 0.637,0.29 0.27,0.192 0.58,0.51 0.928,0.949 0.348,0.441 0.739,1.017 1.171,1.729 0.433,0.711 0.905,1.591 1.414,2.643"
             style="fill:#1a171b;fill-opacity:1;fill-rule:nonzero;stroke:none"
             id="path3787"
             inkscape:connector-curvature="0" /></g><g
           id="g3789"
           transform="translate(53.4966,5.4614)"><path
             d="M 0,0 C 1.053,0 2.015,0.294 2.887,0.881 3.761,1.468 4.614,2.249 5.449,3.223 5.155,2.743 4.789,2.285 4.349,1.843 3.907,1.404 3.421,1.013 2.887,0.673 2.354,0.332 1.787,0.062 1.184,-0.14 c -0.604,-0.2 -1.23,-0.299 -1.878,-0.299 -1.006,0 -1.762,0.226 -2.273,0.682 -0.51,0.457 -0.8,1.033 -0.869,1.729 -0.07,0.694 0.058,1.44 0.382,2.236 0.325,0.796 0.811,1.543 1.46,2.238 0.649,0.696 1.439,1.272 2.365,1.728 0.928,0.455 1.963,0.683 3.106,0.683 0.775,0 1.362,-0.147 1.763,-0.44 C 5.644,8.123 5.875,7.751 5.936,7.304 5.998,6.855 5.89,6.361 5.612,5.818 5.333,5.28 4.893,4.756 4.29,4.254 3.687,3.753 2.936,3.308 2.041,2.921 1.144,2.536 0.101,2.265 -1.088,2.11 -1.291,2.187 -1.348,2.265 -1.263,2.341 -1.178,2.42 -1.082,2.466 -0.974,2.482 -0.555,2.529 -0.135,2.71 0.29,3.026 0.715,3.344 1.112,3.724 1.483,4.173 1.856,4.623 2.196,5.096 2.506,5.6 2.813,6.102 3.057,6.566 3.235,6.99 3.413,7.416 3.52,7.771 3.56,8.057 3.598,8.343 3.532,8.486 3.363,8.486 3.146,8.486 2.836,8.278 2.435,7.86 2.033,7.444 1.614,6.917 1.184,6.283 0.75,5.649 0.345,4.971 -0.034,4.244 -0.414,3.517 -0.692,2.837 -0.869,2.204 -1.047,1.57 -1.087,1.043 -0.985,0.626 -0.884,0.209 -0.555,0 0,0"
             style="fill:#1a171b;fill-opacity:1;fill-rule:nonzero;stroke:none"
             id="path3791"
             inkscape:connector-curvature="0" /></g></g></g></g></svg>